<?xml version="1.0" encoding="UTF-8" standalone="no"?> <svg xmlns="http://www.w3.org/2000/svg" data-name="Layer 1" viewBox="0 0 32 32"><path fill="#58565d" d="M4.02,11.28,4.88,29.5a1.88186,1.88186,0,1,1-3.76.11V29.5l.86-18.22Z"/><path fill="#3c3b41" d="M2.12,29.61V29.5l.86-18.22h-1L1.12,29.5v.11A1.88641,1.88641,0,0,0,3,31.5a1.85875,1.85875,0,0,0,.50079-.076A1.88515,1.88515,0,0,1,2.12,29.61Z"/><path fill="#fff" d="M23.5,16a4.18964,4.18964,0,0,1-.03.5,7.328,7.328,0,0,1-1.83,4.43,4.76741,4.76741,0,0,1-.71.71,7.328,7.328,0,0,1-4.43,1.83,4.17762,4.17762,0,0,1-1,0,7.328,7.328,0,0,1-4.43-1.83,4.76741,4.76741,0,0,1-.71-.71A7.328,7.328,0,0,1,8.53,16.5a4.17762,4.17762,0,0,1,0-1,7.32781,7.32781,0,0,1,1.83-4.43,4.76741,4.76741,0,0,1,.71-.71A7.32839,7.32839,0,0,1,15.5,8.53a4.18606,4.18606,0,0,1,1,0,7.32839,7.32839,0,0,1,4.43,1.83,4.76741,4.76741,0,0,1,.71.71,7.32781,7.32781,0,0,1,1.83,4.43A4.18811,4.18811,0,0,1,23.5,16Z"/><path fill="#e0e0e2" d="M11.36,20.93A7.328,7.328,0,0,1,9.53,16.5a4.17762,4.17762,0,0,1,0-1,7.32781,7.32781,0,0,1,1.83-4.43,4.76741,4.76741,0,0,1,.71-.71A7.32839,7.32839,0,0,1,16.5,8.53a4.18606,4.18606,0,0,0-1,0,7.32839,7.32839,0,0,0-4.43,1.83,4.76741,4.76741,0,0,0-.71.71A7.32781,7.32781,0,0,0,8.53,15.5a4.17762,4.17762,0,0,0,0,1,7.328,7.328,0,0,0,1.83,4.43,4.76741,4.76741,0,0,0,.71.71,7.328,7.328,0,0,0,4.43,1.83,4.17762,4.17762,0,0,0,1,0,7.328,7.328,0,0,1-4.43-1.83A4.76741,4.76741,0,0,1,11.36,20.93Z"/><path fill="#8b8891" d="M5.5,0A.49971.49971,0,0,0,5,.5V7H3.5V.5a.5.5,0,0,0-1,0V7H1V.5a.5.5,0,0,0-1,0V9A3,3,0,0,0,6,9V.5A.49971.49971,0,0,0,5.5,0Z"/><path fill="#58565d" d="M1,9V.5a.5.5,0,0,0-1,0V9a3.00328,3.00328,0,0,0,3,3,2.97474,2.97474,0,0,0,.5-.05054A2.99809,2.99809,0,0,1,1,9Z"/><path fill="#3c3b41" d="M16 16a.49971.49971 0 0 1-.5-.5V13a.5.5 0 0 1 1 0v2.5A.49971.49971 0 0 1 16 16zM16.5 7.53V9.5a.5.5 0 0 1-1 0V7.53a4.18606 4.18606 0 0 1 1 0zM16.5 22.5v1.97a4.17762 4.17762 0 0 1-1 0V22.5a.5.5 0 0 1 1 0zM10.36434 9.65723l1.393 1.393a.5.5 0 0 1-.70711.70711l-1.393-1.393a4.18606 4.18606 0 0 1 .70711-.70711zM20.94975 20.24264l1.393 1.393a4.17762 4.17762 0 0 1-.70711.70711l-1.393-1.393a.5.5 0 0 1 .70711-.70711zM7.53 15.5H9.5a.5.5 0 0 1 0 1H7.53a4.18606 4.18606 0 0 1 0-1zM22.5 15.5h1.97a4.17762 4.17762 0 0 1 0 1H22.5a.5.5 0 0 1 0-1zM9.65723 21.63566l1.393-1.393a.5.5 0 1 1 .70711.70711l-1.393 1.393a4.18606 4.18606 0 0 1-.70711-.70711zM20.24264 11.05025l1.393-1.393a4.17762 4.17762 0 0 1 .70711.70711l-1.393 1.393a.5.5 0 0 1-.70711-.70711zM13.5 19a.5.5 0 0 1-.35352-.85352l1.79-1.79a.49995.49995 0 0 1 .707.707l-1.79 1.79A.49838.49838 0 0 1 13.5 19z"/><path fill="#58565d" d="M31.5,19.5V29.57975A1.92025,1.92025,0,0,1,29.57975,31.5h0a1.92025,1.92025,0,0,1-1.91415-2.07314L28.45852,19.5"/><path fill="#3c3b41" d="M28.66559,29.42682,29.4585,19.5h-1l-.79291,9.92682a1.897,1.897,0,0,0,2.41333,1.99939A1.91579,1.91579,0,0,1,28.66559,29.42682Z"/><path fill="#8b8891" d="M31.5,19.5h-4V8.5a10,10,0,0,1,4-8h0Z"/><path fill="#58565d" d="M28.5,8.5a9.99447,9.99447,0,0,1,3-7.13068V.5a10,10,0,0,0-4,8v11h1V8.5Z"/><circle cx="16" cy="16" r="1" fill="#f7991d"/><path fill="#f7991d" d="M16,6.5A9.5,9.5,0,1,0,25.5,16,9.49578,9.49578,0,0,0,16,6.5Zm5.64,14.43a4.76741,4.76741,0,0,1-.71.71,7.328,7.328,0,0,1-4.43,1.83,4.17762,4.17762,0,0,1-1,0,7.328,7.328,0,0,1-4.43-1.83,4.76741,4.76741,0,0,1-.71-.71A7.328,7.328,0,0,1,8.53,16.5a4.17762,4.17762,0,0,1,0-1,7.32781,7.32781,0,0,1,1.83-4.43,4.76741,4.76741,0,0,1,.71-.71A7.32839,7.32839,0,0,1,15.5,8.53a4.18606,4.18606,0,0,1,1,0,7.32839,7.32839,0,0,1,4.43,1.83,4.76741,4.76741,0,0,1,.71.71,7.32781,7.32781,0,0,1,1.83,4.43,4.17762,4.17762,0,0,1,0,1A7.328,7.328,0,0,1,21.64,20.93Z"/><path fill="#e37626" d="M7.5,16a9.48758,9.48758,0,0,1,9-9.47479C16.33337,6.51654,16.16882,6.5,16,6.5a9.5,9.5,0,0,0,0,19c.16882,0,.33337-.01654.5-.02521A9.48758,9.48758,0,0,1,7.5,16Z"/></svg>