<?xml version="1.0" standalone="no"?>
<!DOCTYPE svg PUBLIC "-//W3C//DTD SVG 20010904//EN"
 "http://www.w3.org/TR/2001/REC-SVG-20010904/DTD/svg10.dtd">
<svg version="1.0" xmlns="http://www.w3.org/2000/svg"
 width="700.000000pt" height="700.000000pt" viewBox="0 0 700.000000 700.000000"
 preserveAspectRatio="xMidYMid meet">
<metadata>
Created by potrace 1.14, written by Peter Selinger 2001-2017
</metadata>
<g transform="translate(0.000000,700.000000) scale(0.100000,-0.100000)"
fill="#000000" stroke="none">
<path d="M3309 6495 c-2 -1 -40 -6 -84 -9 -84 -6 -92 -7 -245 -32 -438 -72
-888 -265 -1275 -547 -38 -29 -72 -54 -75 -57 -3 -3 -32 -27 -65 -55 -190
-157 -394 -379 -537 -585 -189 -271 -362 -642 -434 -925 -4 -16 -8 -32 -9 -35
-1 -3 -10 -42 -20 -88 -20 -89 -25 -95 -89 -106 -65 -12 -159 -62 -213 -115
-102 -99 -151 -240 -151 -436 1 -317 137 -524 377 -576 40 -8 52 -16 56 -32
36 -165 105 -407 135 -474 15 -34 26 -61 56 -133 55 -135 153 -314 260 -475
332 -501 826 -901 1388 -1125 131 -52 333 -116 426 -135 171 -35 225 -45 275
-51 33 -3 68 -8 78 -10 117 -22 575 -21 690 2 12 2 45 6 72 9 28 4 95 15 150
26 55 12 109 23 120 25 105 21 356 104 500 167 136 59 352 173 392 207 7 5 15
10 18 10 10 0 203 137 274 195 263 214 465 436 644 710 36 55 75 118 87 140
12 22 33 60 47 85 46 82 135 284 175 394 36 102 94 296 101 341 5 34 14 41 74
55 81 18 149 56 214 121 102 100 146 225 147 419 1 119 -14 218 -44 300 -23
61 -85 151 -131 189 -44 37 -146 89 -188 97 -16 3 -31 6 -32 8 -2 1 -12 45
-23 97 -105 500 -334 969 -661 1354 -67 78 -255 266 -329 327 -41 35 -77 65
-80 68 -3 3 -32 25 -65 51 -416 315 -942 528 -1445 584 -25 3 -56 8 -70 11
-27 6 -486 15 -491 9z"/>
</g>
</svg>
